solid test
  facet normal -1E+0 0E+0 0E+0
    outer loop
      vertex 0.5E+0 2.5E+0 -0.5E+0
      vertex 0.5E+0 2.5E+0 0.5E+0
      vertex 0.5E+0 3.5E+0 -0.5E+0
    endloop
  endfacet
  facet normal -1E+0 0E+0 0E+0
    outer loop
      vertex 0.5E+0 3.5E+0 -0.5E+0
      vertex 0.5E+0 2.5E+0 0.5E+0
      vertex 0.5E+0 3.5E+0 0.5E+0
    endloop
  endfacet
  facet normal 0E+0 -1E+0 0E+0
    outer loop
      vertex 0.5E+0 2.5E+0 0.5E+0
      vertex 0.5E+0 2.5E+0 -0.5E+0
      vertex 1.5E+0 2.5E+0 -0.5E+0
    endloop
  endfacet
  facet normal 0E+0 -1E+0 0E+0
    outer loop
      vertex 0.5E+0 2.5E+0 0.5E+0
      vertex 1.5E+0 2.5E+0 -0.5E+0
      vertex 1.5E+0 2.5E+0 0.5E+0
    endloop
  endfacet
  facet normal 0E+0 0E+0 -1E+0
    outer loop
      vertex 0.5E+0 2.5E+0 -0.5E+0
      vertex 0.5E+0 3.5E+0 -0.5E+0
      vertex 1.5E+0 2.5E+0 -0.5E+0
    endloop
  endfacet
  facet normal 0E+0 0E+0 -1E+0
    outer loop
      vertex 1.5E+0 2.5E+0 -0.5E+0
      vertex 0.5E+0 3.5E+0 -0.5E+0
      vertex 1.5E+0 3.5E+0 -0.5E+0
    endloop
  endfacet
  facet normal 0E+0 1E+0 0E+0
    outer loop
      vertex 0.5E+0 3.5E+0 -0.5E+0
      vertex 0.5E+0 3.5E+0 0.5E+0
      vertex 1.5E+0 3.5E+0 -0.5E+0
    endloop
  endfacet
  facet normal 0E+0 1E+0 0E+0
    outer loop
      vertex 1.5E+0 3.5E+0 -0.5E+0
      vertex 0.5E+0 3.5E+0 0.5E+0
      vertex 1.5E+0 3.5E+0 0.5E+0
    endloop
  endfacet
  facet normal 1E+0 0E+0 0E+0
    outer loop
      vertex 1.5E+0 2.5E+0 0.5E+0
      vertex 1.5E+0 2.5E+0 -0.5E+0
      vertex 1.5E+0 3.5E+0 -0.5E+0
    endloop
  endfacet
  facet normal 1E+0 0E+0 0E+0
    outer loop
      vertex 1.5E+0 2.5E+0 0.5E+0
      vertex 1.5E+0 3.5E+0 -0.5E+0
      vertex 1.5E+0 3.5E+0 0.5E+0
    endloop
  endfacet
  facet normal 0E+0 0E+0 1E+0
    outer loop
      vertex 0.5E+0 3.5E+0 0.5E+0
      vertex 0.5E+0 2.5E+0 0.5E+0
      vertex 1.5E+0 2.5E+0 0.5E+0
    endloop
  endfacet
  facet normal 0E+0 0E+0 1E+0
    outer loop
      vertex 0.5E+0 3.5E+0 0.5E+0
      vertex 1.5E+0 2.5E+0 0.5E+0
      vertex 1.5E+0 3.5E+0 0.5E+0
    endloop
  endfacet
endsolid test
